<?xml version="1.0" ?><svg enable-background="new 0 0 32 32" id="Glyph" version="1.1" viewBox="0 0 32 32" xml:space="preserve" xmlns="http://www.w3.org/2000/svg" xmlns:xlink="http://www.w3.org/1999/xlink"><path d="M24.972,12.288C24.608,7.657,20.723,4,16,4c-4.04,0-7.508,2.624-8.628,6.451C4.181,11.559,2,14.583,2,18  c0,4.411,3.589,8,8,8h13c3.859,0,7-3.14,7-7C30,15.851,27.93,13.148,24.972,12.288z M20,18h-3v3c0,0.552-0.447,1-1,1s-1-0.448-1-1  v-3h-3c-0.553,0-1-0.448-1-1s0.447-1,1-1h3v-3c0-0.552,0.447-1,1-1s1,0.448,1,1v3h3c0.553,0,1,0.448,1,1S20.553,18,20,18z" id="XMLID_281_"/></svg>